<svg width="38" height="24" xmlns="http://www.w3.org/2000/svg">
 <g>
  <path id="svg_1" fill="#003844" d="m11.7204,2.0565c0.1808,-0.0733 0.383,-0.0733 0.5637,0l9.2502,3.75107c0.283,0.11478 0.4682,0.3897 0.4681,0.69512c0,0.02319 -0.001,0.04621 -0.0031,0.06899l0,10.93232c0,0.3054 -0.1853,0.5803 -0.4683,0.6951l-9.2399,3.7444c-0.0979,0.0397 -0.1993,0.0572 -0.2986,0.0549c-0.0958,0.0002 -0.192,-0.0179 -0.2833,-0.0549l-9.23991,-3.7444c-0.28308,-0.1148 -0.46831,-0.3897 -0.46831,-0.6951l0,-10.95059c0,-0.01592 0.00049,-0.03172 0.00147,-0.04739l-0.00001,-0.00334c-0.00003,-0.3054 0.18513,-0.58033 0.46815,-0.6951l9.24981,-3.75108zm1.0214,18.0859l7.7575,-3.1438l0,-9.38152l-7.7494,3.14052l-0.0081,9.3848zm-9.24082,-12.52718l0,9.38338l7.74082,3.137l0.0081,-9.3799l-7.74892,-3.14048zm8.50132,-4.05437l-7.25359,2.94153l7.25359,2.93968l7.2538,-2.93968l-7.2538,-2.94153z"/>
  <path stroke="null" id="svg_2" fill="#003844" d="m26.42019,19.56845c-0.24927,-0.24933 -0.24927,-0.6535 0,-0.90282l7.08148,-7.08148l-7.08148,-7.08148c-0.24927,-0.24931 -0.24927,-0.65351 0,-0.90281c0.24933,-0.24931 0.6535,-0.24931 0.90282,0l7.5329,7.53288c0.24927,0.24933 0.24927,0.6535 0,0.90282l-7.5329,7.5329c-0.24933,0.24927 -0.6535,0.24927 -0.90282,0z"/>
 </g>
</svg>